<svg width="1440" height="993" viewBox="0 0 1440 993" fill="none" xmlns="http://www.w3.org/2000/svg">
<mask id="mask0_317_57" style="mask-type:luminance" maskUnits="userSpaceOnUse" x="0" y="-80" width="1486" height="1440">
<path d="M1486 -80H0V1360H1486V-80Z" fill="white"/>
</mask>
<g mask="url(#mask0_317_57)">
<path d="M63.7617 -262.25V1542.29" stroke="#E0E0E0" stroke-miterlimit="10"/>
<path d="M290.181 -262.25V1542.29" stroke="#E0E0E0" stroke-miterlimit="10"/>
<path d="M516.588 -262.25V1542.29" stroke="#E0E0E0" stroke-miterlimit="10"/>
<path d="M743.003 -262.25V1542.29" stroke="#E0E0E0" stroke-miterlimit="10"/>
<path d="M969.41 -262.25V1542.29" stroke="#E0E0E0" stroke-miterlimit="10"/>
<path d="M1195.83 -262.25V1542.29" stroke="#E0E0E0" stroke-miterlimit="10"/>
<path d="M1422.24 -262.25V1542.29" stroke="#E0E0E0" stroke-miterlimit="10"/>
<path d="M1940.07 201.207H-454.071" stroke="#E0E0E0" stroke-miterlimit="10"/>
<path d="M1940.07 420.605H-454.071" stroke="#E0E0E0" stroke-miterlimit="10"/>
<path d="M1940.07 640.012H-454.071" stroke="#E0E0E0" stroke-miterlimit="10"/>
<path d="M1940.07 859.41H-454.071" stroke="#E0E0E0" stroke-miterlimit="10"/>
<path d="M1250.23 754.457L1368.78 871.538C1381.76 884.362 1381.54 904.977 1368.31 917.563L1290.05 991.971L1147.99 851.666L1250.23 754.457Z" fill="#0D6EFD"/>
<path d="M1202.84 799.512L1321.39 916.592C1334.37 929.417 1334.17 950.015 1320.92 962.618L1290.05 991.968L1147.99 851.663L1202.84 799.512Z" fill="#F6F6F6"/>
<path d="M1370.9 915.061L1370.92 915.079L1290.05 991.975C1276.79 1004.57 1255.53 1004.38 1242.55 991.554L1242.39 991.393L1323.74 914.039L1323.91 914.2C1336.73 926.864 1357.63 927.18 1370.9 915.061Z" fill="#0D6EFD"/>
<path d="M1326.35 957.422L1326.37 957.439L1290.05 991.976C1276.79 1004.58 1255.53 1004.38 1242.55 991.556L1242.39 991.395L1279.18 956.414L1279.34 956.575C1292.16 969.244 1313.07 969.561 1326.35 957.422Z" fill="#F6F6F6"/>
<path d="M1262.69 781.465L1178.65 861.363L1184.71 867.354L1268.75 787.456L1262.69 781.465Z" fill="#23130D"/>
<path d="M1277.34 795.739L1193.3 875.648L1199.37 881.639L1283.41 801.729L1277.34 795.739Z" fill="#23130D"/>
<path d="M1291.82 810.243L1207.78 890.141L1213.84 896.131L1297.88 816.233L1291.82 810.243Z" fill="#23130D"/>
<path d="M1306.38 824.645L1222.35 904.543L1228.41 910.533L1312.45 830.635L1306.38 824.645Z" fill="#23130D"/>
<path d="M1320.95 839.032L1236.92 918.93L1242.98 924.92L1327.02 845.022L1320.95 839.032Z" fill="#23130D"/>
<path d="M1335.52 853.426L1251.49 933.324L1257.55 939.315L1341.59 859.417L1335.52 853.426Z" fill="#23130D"/>
<path d="M1256.65 961.361C1256.02 961.361 1255.39 961.122 1254.91 960.65L1146.24 853.33C1145.3 852.394 1145.31 850.893 1146.28 849.974L1248.52 752.766C1248.98 752.325 1249.74 752.155 1250.26 752.086C1250.91 752.092 1251.53 752.348 1251.98 752.797L1370.53 869.878C1377.26 876.534 1380.92 885.335 1380.83 894.666C1380.73 903.994 1376.9 912.727 1370.03 919.258C1369.06 920.18 1367.51 920.163 1366.57 919.227C1365.62 918.291 1365.63 916.79 1366.6 915.872C1372.53 910.227 1375.85 902.681 1375.93 894.62C1376.02 886.559 1372.86 878.953 1367.04 873.204L1250.21 757.817L1151.45 851.699L1258.4 957.326C1259.35 958.262 1259.34 959.763 1258.37 960.682C1257.89 961.134 1257.27 961.361 1256.65 961.361Z" fill="#000072"/>
<path d="M1266.51 1003.66C1256.76 1003.66 1247.63 999.946 1240.8 993.201C1239.86 992.265 1239.71 990.601 1240.67 989.682L1322.03 912.328C1322.5 911.887 1323.12 911.68 1323.78 911.648C1324.43 911.657 1325.05 911.916 1325.51 912.368C1331.55 918.336 1339.43 921.541 1347.85 921.541C1347.85 921.541 1347.85 921.541 1347.85 921.541C1355.83 921.541 1363.42 918.621 1369.22 913.319C1370.19 912.44 1371.7 912.461 1372.64 913.368C1373.1 913.817 1373.37 914.433 1373.36 915.067C1373.36 915.701 1373.11 916.317 1372.64 916.758L1291.76 993.654C1284.98 1000.1 1276.01 1003.66 1266.51 1003.66C1266.51 1003.66 1266.51 1003.66 1266.51 1003.66ZM1245.92 991.347C1251.7 996.283 1258.89 998.91 1266.51 998.91C1274.72 998.907 1282.47 995.839 1288.33 990.264L1356.75 925.21C1353.87 925.919 1350.88 926.285 1347.85 926.285C1338.84 926.285 1330.37 923.119 1323.76 917.331L1245.92 991.347Z" fill="#000072"/>
<path d="M1498.48 955.476L1572.83 1072.64C1577.64 1080.23 1575.2 1090.12 1567.38 1094.78L1508.96 1129.6C1504.8 1132.07 1499.99 1132.58 1495.66 1131.37C1491.81 1130.28 1488.34 1127.88 1486.09 1124.33L1411.74 1007.16C1406.92 999.577 1409.37 989.653 1417.19 984.99L1475.62 950.177C1479.03 948.14 1482.92 947.441 1486.6 947.948C1491.35 948.598 1495.76 951.202 1498.48 955.476Z" fill="#0D6EFD"/>
<path d="M1500.23 1134.36C1498.47 1134.36 1496.7 1134.12 1494.99 1133.64C1490.38 1132.35 1486.49 1129.48 1484.01 1125.56L1409.66 1008.4C1404.15 999.715 1406.95 988.304 1415.92 982.965L1474.34 948.151C1478.12 945.899 1482.59 944.989 1486.96 945.599C1492.62 946.368 1497.58 949.513 1500.57 954.231C1501.27 955.345 1500.91 956.808 1499.76 957.494C1498.61 958.179 1497.1 957.834 1496.4 956.716C1494.17 953.211 1490.48 950.873 1486.27 950.3C1483.02 949.842 1479.71 950.524 1476.9 952.195L1418.48 987.008C1415.25 988.935 1412.99 991.959 1412.11 995.527C1411.23 999.098 1411.84 1002.79 1413.83 1005.92L1488.18 1123.08C1490.02 1125.99 1492.92 1128.12 1496.35 1129.09C1500.15 1130.15 1504.28 1129.6 1507.68 1127.58L1540.14 1108.23C1541.29 1107.54 1542.8 1107.89 1543.51 1109C1544.22 1110.12 1543.86 1111.58 1542.71 1112.27L1510.24 1131.62C1507.2 1133.43 1503.73 1134.36 1500.23 1134.36Z" fill="#000072"/>
<path d="M1489.44 960.856L1557.04 1067.38C1558.77 1070.11 1557.89 1073.7 1555.07 1075.38L1496.64 1110.19C1496.01 1110.57 1495.35 1110.82 1494.66 1110.92C1494.35 1111.01 1494.02 1111.04 1493.7 1111.05C1491.6 1111.12 1489.53 1110.14 1488.37 1108.3L1420.77 1001.78C1419.03 999.025 1419.91 995.434 1422.75 993.743L1481.17 958.93C1483.05 957.809 1485.35 957.818 1487.16 958.789C1487.33 958.858 1487.46 958.947 1487.62 959.045C1488.33 959.494 1488.97 960.105 1489.44 960.856Z" fill="#F6F6F6"/>
<path d="M1493.56 1113.43C1490.56 1113.43 1487.82 1111.95 1486.29 1109.54L1418.7 1003.02C1416.25 999.159 1417.5 994.093 1421.48 991.72L1479.9 956.907C1482.48 955.372 1485.71 955.294 1488.36 956.708C1488.4 956.714 1488.62 956.838 1488.84 956.976C1490 957.708 1490.89 958.589 1491.54 959.605L1515.17 996.847C1515.88 997.961 1515.52 999.424 1514.37 1000.11C1513.22 1000.8 1511.71 1000.45 1511 999.332L1487.37 962.094C1487.1 961.673 1486.73 961.302 1486.29 961.028C1486.22 960.997 1486.06 960.899 1485.98 960.861C1484.89 960.276 1483.54 960.308 1482.47 960.95L1424.04 995.761C1422.37 996.763 1421.84 998.9 1422.87 1000.53L1490.46 1107.05C1491.13 1108.1 1492.47 1108.78 1493.63 1108.68C1493.78 1108.67 1493.93 1108.65 1493.98 1108.64C1494.1 1108.61 1494.21 1108.58 1494.32 1108.56C1494.66 1108.52 1495.01 1108.39 1495.37 1108.17L1533.6 1085.39C1534.75 1084.7 1536.26 1085.05 1536.97 1086.17C1537.67 1087.28 1537.32 1088.74 1536.16 1089.43L1497.94 1112.21C1497.06 1112.74 1496.13 1113.08 1495.19 1113.24C1494.71 1113.35 1494.27 1113.39 1493.87 1113.42C1493.76 1113.43 1493.66 1113.43 1493.56 1113.43Z" fill="#000072"/>
<path d="M1739.93 654.09L1673.88 837.056C1669.28 849.789 1654.89 856.51 1641.71 852.044L1357.57 755.722C1344.39 751.255 1337.46 737.304 1342.05 724.572L1408.1 541.605L1739.93 654.09Z" fill="#0D6EFD"/>
<path d="M1677.19 632.818L1611.14 815.787C1606.54 828.52 1592.14 835.242 1578.97 830.775L1357.57 755.722C1344.39 751.255 1337.46 737.304 1342.05 724.572L1408.1 541.605L1677.19 632.818Z" fill="#F6F6F6"/>
<path d="M1739.92 654.085L1712.68 729.541C1704.61 751.901 1679.33 763.726 1656.22 755.893L1408.05 671.765C1384.98 663.943 1372.78 639.414 1380.86 617.054L1408.09 541.598L1739.92 654.085Z" fill="#0D6EFD"/>
<path d="M1677.18 632.824L1649.94 708.28C1641.87 730.64 1616.59 742.465 1593.48 734.632L1408.05 671.773C1384.98 663.951 1372.78 639.422 1380.86 617.061L1408.09 541.605L1677.18 632.824Z" fill="#F6F6F6"/>
<path d="M1410.25 636.874C1407.6 635.975 1406.2 633.17 1407.13 630.604L1422.72 587.41C1423.65 584.844 1426.54 583.493 1429.19 584.391C1431.84 585.29 1433.23 588.095 1432.31 590.661L1416.72 633.855C1415.79 636.419 1412.89 637.772 1410.25 636.874Z" fill="#0D6EFD"/>
<path d="M1650.06 855.792C1646.94 855.792 1643.86 855.282 1640.89 854.277L1356.75 757.956C1342.33 753.062 1334.7 737.735 1339.74 723.779L1405.79 540.812C1406.24 539.577 1407.63 538.932 1408.91 539.358L1740.73 651.842C1741.35 652.049 1741.85 652.484 1742.13 653.054C1742.41 653.619 1742.45 654.273 1742.23 654.869L1676.19 837.835C1672.31 848.575 1661.81 855.792 1650.06 855.792ZM1409.61 544.62L1344.36 725.351C1340.22 736.834 1346.5 749.451 1358.37 753.477L1642.52 849.799C1644.96 850.628 1647.5 851.049 1650.06 851.049C1659.73 851.049 1668.37 845.11 1671.57 836.266L1736.8 655.537L1409.61 544.62Z" fill="#000072"/>
<path d="M1670.84 760.683C1665.6 760.683 1660.4 759.825 1655.41 758.131L1407.24 674.004C1382.9 665.75 1370.03 639.853 1378.54 616.268L1405.78 540.812C1406.23 539.577 1407.62 538.932 1408.9 539.358L1740.73 651.842C1741.34 652.049 1741.84 652.484 1742.12 653.054C1742.4 653.619 1742.44 654.273 1742.23 654.869L1714.99 730.325C1708.43 748.48 1690.69 760.683 1670.84 760.683ZM1409.6 544.617L1383.16 617.838C1375.54 638.948 1387.07 662.135 1408.86 669.522L1657.03 753.65C1661.5 755.168 1666.15 755.937 1670.85 755.937C1688.62 755.937 1704.5 745.01 1710.37 728.749L1736.8 655.531L1409.6 544.617Z" fill="#000072"/>
<path d="M772.814 1047.79L612.237 947.391C607.952 944.713 606.721 939.178 609.485 935.025L628.753 906.084C643.518 883.908 674.147 877.508 697.031 891.813L790.117 950.012C813.002 964.32 819.606 994.001 804.841 1016.18L785.573 1045.12C782.809 1049.27 777.097 1050.46 772.814 1047.79ZM630.007 937.208L775.067 1027.9L789.33 1006.48C798.576 992.59 794.439 974.008 780.111 965.049L687.025 906.85C672.694 897.89 653.515 901.899 644.272 915.783L630.007 937.208Z" fill="#23130D"/>
<path d="M775.071 1051.29C773.796 1050.99 772.586 1050.49 771.475 1049.79L610.9 949.398C608.279 947.759 606.472 945.231 605.818 942.273C605.159 939.318 605.729 936.291 607.42 933.751L626.691 904.81C638.62 886.893 661.02 878.216 682.436 883.216C688.083 884.535 693.436 886.761 698.352 889.834L791.44 948.033C815.46 963.049 822.391 994.205 806.895 1017.48L787.624 1046.42C784.935 1050.46 779.888 1052.41 775.071 1051.29ZM681.286 887.829C661.894 883.299 641.604 891.159 630.804 907.384L611.533 936.326C609.507 939.367 610.413 943.445 613.557 945.409L774.135 1045.8C777.219 1047.74 781.538 1046.81 783.508 1043.84L802.779 1014.9C816.81 993.828 810.533 965.618 788.781 952.022L695.692 893.823C691.24 891.038 686.395 889.024 681.286 887.829ZM774.479 1030.22C774.212 1030.16 773.959 1030.06 773.724 1029.91L628.661 939.211C628.117 938.871 627.731 938.333 627.597 937.717C627.46 937.103 627.582 936.461 627.933 935.928L642.199 914.504C649.878 902.969 664.304 897.382 678.088 900.599C681.726 901.449 685.174 902.883 688.339 904.862L781.425 963.061C796.888 972.729 801.352 992.788 791.375 1007.77L777.113 1029.2C776.762 1029.72 776.206 1030.1 775.57 1030.23C775.207 1030.31 774.833 1030.31 774.479 1030.22ZM633.381 936.516L774.328 1024.64L787.262 1005.2C795.774 992.416 791.967 975.306 778.771 967.055L685.685 908.856C682.986 907.168 680.047 905.944 676.944 905.219C665.181 902.471 652.871 907.238 646.318 917.084L633.381 936.516Z" fill="#000072"/>
<path d="M859.077 1061.61L750.631 1224.5C743.082 1235.83 727.461 1239.09 715.734 1231.76L462.787 1073.61C451.06 1066.28 447.689 1051.14 455.238 1039.81L563.686 876.926L859.077 1061.61Z" fill="#0D6EFD"/>
<path d="M803.23 1026.69L694.781 1189.58C687.235 1200.91 671.612 1204.18 659.884 1196.84L462.787 1073.61C451.06 1066.28 447.689 1051.14 455.238 1039.81L563.686 876.926L803.23 1026.69Z" fill="#F6F6F6"/>
<path d="M859.084 1061.61L814.361 1128.79C801.109 1148.69 773.674 1154.45 753.102 1141.59L532.176 1003.46C511.636 990.62 505.71 964.005 518.965 944.099L563.691 876.926L859.084 1061.61Z" fill="#0D6EFD"/>
<path d="M803.229 1026.69L758.504 1093.87C745.252 1113.77 717.817 1119.53 697.245 1106.67L532.171 1003.46C511.632 990.62 505.706 964.005 518.961 944.099L563.686 876.926L803.229 1026.69Z" fill="#F6F6F6"/>
<path d="M542.747 970.026C540.39 968.552 539.713 965.508 541.234 963.224L566.835 924.773C568.354 922.489 571.498 921.832 573.855 923.307C576.212 924.782 576.89 927.826 575.368 930.11L549.767 968.56C548.245 970.841 545.101 971.498 542.747 970.026Z" fill="#0D6EFD"/>
<path d="M722.948 1237.31C719.922 1236.6 717.048 1235.41 714.406 1233.76L461.459 1075.61C448.626 1067.58 444.911 1050.94 453.179 1038.52L561.628 875.638C562.362 874.538 563.874 874.226 565.016 874.932L860.412 1059.62C860.958 1059.96 861.342 1060.5 861.476 1061.11C861.612 1061.73 861.49 1062.37 861.14 1062.9L752.695 1225.78C746.323 1235.34 734.369 1239.97 722.948 1237.31ZM564.415 880.205L457.296 1041.09C450.49 1051.31 453.551 1065.01 464.116 1071.62L717.063 1229.77C719.239 1231.13 721.604 1232.11 724.092 1232.69C733.495 1234.89 743.336 1231.08 748.575 1223.2L855.692 1062.32L564.415 880.205Z" fill="#000072"/>
<path d="M766.152 1149.57C761.052 1148.37 756.214 1146.36 751.765 1143.58L530.841 1005.45C509.178 991.903 502.922 963.806 516.899 942.811L561.625 875.638C562.359 874.538 563.872 874.226 565.013 874.932L860.409 1059.62C860.956 1059.96 861.339 1060.5 861.473 1061.11C861.61 1061.73 861.488 1062.37 861.137 1062.9L816.411 1130.07C805.647 1146.24 785.452 1154.07 766.152 1149.57ZM564.413 880.203L521.016 945.383C508.503 964.178 514.103 989.334 533.501 1001.46L754.424 1139.59C758.404 1142.08 762.737 1143.88 767.302 1144.95C784.578 1148.98 802.663 1141.97 812.298 1127.49L855.695 1062.31L564.413 880.203Z" fill="#000072"/>
<path d="M1336.88 32.4023L1326.4 65.2833L1306.69 127.002L1240.78 136.595L1205.66 141.704L1336.88 32.4023Z" fill="#0D6EFD"/>
<path d="M1205.66 141.707L1336.88 32.4141L1235.85 47.1309L1205.66 141.707Z" fill="#23130D"/>
<path d="M1407.7 112.274L1336.87 32.4141L1306.68 126.99L1407.7 112.274Z" fill="#F6F6F6"/>
<path d="M1306.69 127.002L1276.5 221.578L1407.71 112.285L1306.69 127.002Z" fill="#0D6EFD"/>
<path d="M1205.66 141.705L1276.5 221.565L1306.69 126.988L1205.66 141.705Z" fill="#F6F6F6"/>
<path d="M1374 99.023C1372.18 100.541 1369.43 100.339 1367.86 98.5738L1341.48 68.8291C1339.92 67.0637 1340.12 64.3997 1341.95 62.8819C1343.77 61.3642 1346.52 61.5658 1348.08 63.3312L1374.47 93.0758C1376.03 94.8413 1375.83 97.5053 1374 99.023Z" fill="#0D6EFD"/>
<path d="M1205.66 144.082C1204.71 144.082 1203.84 143.549 1203.43 142.697C1202.98 141.735 1203.24 140.597 1204.06 139.909L1335.28 30.6102C1336.11 29.9219 1337.32 29.8499 1338.22 30.4259C1339.14 31.0076 1339.54 32.1021 1339.22 33.1101L1309.02 127.707C1308.74 128.579 1307.98 129.219 1307.05 129.351L1206.02 144.056C1205.9 144.074 1205.78 144.082 1205.66 144.082ZM1332.03 39.5814L1213.7 138.141L1304.8 124.881L1332.03 39.5814Z" fill="#000072"/>
<path d="M1205.66 144.088C1205.2 144.088 1204.73 143.959 1204.32 143.699C1203.41 143.12 1203 142.023 1203.32 141.015L1233.51 46.4388C1233.79 45.5691 1234.56 44.9297 1235.49 44.7944L1336.51 30.0776C1337.58 29.9192 1338.65 30.475 1339.1 31.4369C1339.56 32.3988 1339.3 33.5365 1338.47 34.2248L1207.26 143.518C1206.8 143.892 1206.23 144.088 1205.66 144.088ZM1237.74 49.2641L1210.51 134.544L1328.83 35.996L1237.74 49.2641Z" fill="#000072"/>
<path d="M1276.5 223.954C1276.03 223.954 1275.57 223.825 1275.16 223.565C1274.24 222.987 1273.84 221.892 1274.16 220.881L1304.35 126.305C1304.62 125.432 1305.39 124.793 1306.32 124.66L1407.35 109.947C1408.42 109.782 1409.49 110.338 1409.94 111.303C1410.4 112.265 1410.14 113.403 1409.31 114.091L1278.1 223.381C1277.64 223.758 1277.07 223.954 1276.5 223.954ZM1308.57 129.13L1281.35 214.407L1399.67 115.862L1308.57 129.13Z" fill="#000072"/>
<path d="M1292.77 27.3711L1326.39 65.2863L1319.77 86.0511L1306.68 127.005L1240.77 136.598L1207.15 98.6857L1292.77 27.3711Z" fill="#F6F6F6"/>
<path d="M1306.7 129.368C1305.99 129.368 1305.31 129.072 1304.84 128.545C1304.29 127.923 1304.11 127.073 1304.36 126.295L1334.55 31.719C1334.81 30.8953 1335.52 30.2732 1336.39 30.0976C1337.26 29.9305 1338.16 30.2156 1338.75 30.8752L1409.58 110.735C1410.17 111.391 1410.33 112.301 1410.02 113.111C1409.72 113.92 1408.98 114.502 1408.09 114.628L1307.07 129.342C1306.94 129.36 1306.82 129.368 1306.7 129.368ZM1337.92 37.2227L1310.19 124.089L1402.98 110.573L1337.92 37.2227Z" fill="#000072"/>
<path d="M1276.5 223.95C1275.79 223.95 1275.11 223.653 1274.64 223.126L1203.8 143.27C1203.22 142.613 1203.05 141.703 1203.36 140.894C1203.67 140.087 1204.41 139.503 1205.3 139.376L1306.32 124.659C1307.15 124.538 1307.99 124.838 1308.54 125.457C1309.09 126.079 1309.27 126.929 1309.02 127.706L1278.83 222.283C1278.57 223.106 1277.87 223.728 1276.99 223.904C1276.83 223.933 1276.66 223.95 1276.5 223.95ZM1210.4 143.428L1275.46 216.776L1303.19 129.909L1210.4 143.428Z" fill="#000072"/>
<path d="M1108 621.691L1097.52 654.569L1077.8 716.288L1011.9 725.884L976.778 730.99L1108 621.691Z" fill="#0D6EFD"/>
<path d="M976.791 731L1108.01 621.707L1006.98 636.424L976.791 731Z" fill="#23130D"/>
<path d="M1178.84 701.564L1108.01 621.707L1077.82 716.283L1178.84 701.564Z" fill="#F6F6F6"/>
<path d="M1077.81 716.294L1047.62 810.87L1178.84 701.574L1077.81 716.294Z" fill="#0D6EFD"/>
<path d="M976.791 730.998L1047.63 810.858L1077.82 716.281L976.791 730.998Z" fill="#F6F6F6"/>
<path d="M1145.11 688.316C1143.29 689.834 1140.54 689.632 1138.98 687.867L1112.59 658.122C1111.03 656.357 1111.24 653.693 1113.06 652.175C1114.88 650.657 1117.63 650.859 1119.2 652.624L1145.58 682.369C1147.14 684.134 1146.94 686.798 1145.11 688.316Z" fill="#0D6EFD"/>
<path d="M976.788 733.391C975.84 733.391 974.963 732.858 974.562 732.006C974.107 731.044 974.366 729.906 975.189 729.218L1106.41 619.919C1107.24 619.231 1108.44 619.158 1109.35 619.734C1110.26 620.316 1110.67 621.408 1110.35 622.419L1080.15 717.015C1079.87 717.888 1079.1 718.527 1078.17 718.66L977.15 733.365C977.031 733.379 976.907 733.391 976.788 733.391ZM1103.16 628.887L984.83 727.447L1075.93 714.187L1103.16 628.887Z" fill="#000072"/>
<path d="M976.79 733.389C976.323 733.389 975.857 733.259 975.446 733C974.534 732.421 974.127 731.324 974.448 730.316L1004.64 635.74C1004.92 634.87 1005.69 634.231 1006.62 634.095L1107.64 619.378C1108.7 619.22 1109.78 619.776 1110.23 620.738C1110.68 621.7 1110.43 622.837 1109.6 623.526L978.386 732.819C977.931 733.193 977.36 733.389 976.79 733.389ZM1008.87 638.565L981.643 723.845L1099.96 625.294L1008.87 638.565Z" fill="#000072"/>
<path d="M1047.62 813.247C1047.16 813.247 1046.69 813.118 1046.28 812.858C1045.37 812.28 1044.96 811.182 1045.28 810.174L1075.47 715.598C1075.75 714.725 1076.52 714.086 1077.45 713.953L1178.48 699.239C1179.55 699.075 1180.61 699.631 1181.06 700.596C1181.52 701.558 1181.26 702.696 1180.44 703.384L1049.22 812.674C1048.77 813.054 1048.2 813.247 1047.62 813.247ZM1079.7 718.426L1052.48 803.703L1170.8 705.158L1079.7 718.426Z" fill="#000072"/>
<path d="M1063.89 616.68L1097.52 654.592L1090.89 675.357L1077.8 716.31L1011.9 725.907L978.27 687.991L1063.89 616.68Z" fill="#F6F6F6"/>
<path d="M1077.82 718.67C1077.11 718.67 1076.43 718.373 1075.97 717.846C1075.41 717.224 1075.23 716.375 1075.48 715.597L1105.67 621.021C1105.94 620.197 1106.64 619.575 1107.52 619.399C1108.38 619.23 1109.29 619.517 1109.87 620.177L1180.71 700.037C1181.29 700.69 1181.46 701.603 1181.15 702.413C1180.84 703.222 1180.1 703.804 1179.22 703.93L1078.19 718.644C1078.06 718.661 1077.94 718.67 1077.82 718.67ZM1109.04 626.525L1081.31 713.391L1174.1 699.875L1109.04 626.525Z" fill="#000072"/>
<path d="M1047.63 813.259C1046.93 813.259 1046.24 812.962 1045.78 812.435L974.94 732.578C974.358 731.925 974.191 731.012 974.5 730.202C974.809 729.396 975.549 728.811 976.432 728.685L1077.46 713.968C1078.29 713.847 1079.13 714.146 1079.68 714.766C1080.23 715.388 1080.41 716.237 1080.16 717.015L1049.97 811.591C1049.71 812.415 1049 813.037 1048.13 813.213C1047.97 813.244 1047.8 813.259 1047.63 813.259ZM981.541 732.737L1046.6 806.085L1074.33 719.218L981.541 732.737Z" fill="#000072"/>
<path d="M1468.11 -20.0155C1437.94 6.93847 1436.03 52.4857 1463.85 81.7206C1489.36 108.536 1531.04 112.315 1561.04 91.9503C1563.73 90.1042 1566.33 88.0825 1568.83 85.8505C1571.31 83.6329 1573.6 81.277 1575.72 78.829C1599.1 51.5065 1598.62 10.9445 1573.1 -15.8855C1545.28 -45.1175 1498.26 -46.955 1468.11 -20.0155ZM1562.6 65.0396C1560.63 67.5826 1558.4 69.9989 1555.89 72.2425C1553.37 74.486 1550.7 76.4501 1547.91 78.1609C1525.83 91.7026 1496.24 88.4569 1477.89 69.1753C1457.23 47.4572 1458.65 13.623 1481.06 -6.40169C1503.46 -26.4119 1538.39 -25.0497 1559.05 -3.33161C1577.4 15.95 1578.32 44.8105 1562.6 65.0396Z" fill="#23130D"/>
<path d="M176.02 931.021C135.021 929.409 100.433 960.308 98.7686 1000.04C97.241 1036.48 123.956 1067.71 160.028 1073.87C163.276 1074.41 166.599 1074.77 169.99 1074.9C173.363 1075.03 176.7 1074.94 179.984 1074.66C216.454 1071.36 245.713 1042.34 247.241 1005.88C248.905 966.152 216.998 932.634 176.02 931.021ZM180.769 1055.91C177.521 1056.36 174.177 1056.53 170.762 1056.4C167.348 1056.27 164.031 1055.83 160.809 1055.13C135.315 1049.57 116.755 1027 117.855 1000.79C119.091 971.275 144.784 948.324 175.241 949.522C205.677 950.72 229.385 975.618 228.149 1005.13C227.052 1031.34 206.646 1052.38 180.769 1055.91Z" fill="#23130D"/>
<path d="M887.353 744.797L1009.13 856.639C1018.48 865.228 1018.88 879.535 1010.02 888.599L957.341 942.458C951.638 948.29 943.488 950.533 935.925 949.07C931.722 948.29 927.695 946.374 924.361 943.313L802.583 831.471C793.23 822.883 792.835 808.575 801.697 799.512L854.373 745.653C859.078 740.843 865.456 738.473 871.804 738.611C877.4 738.732 882.967 740.765 887.353 744.797Z" fill="#23130D"/>
<path d="M1017.88 866.238C1020.34 874.682 1018 883.873 1011.78 890.232L959.112 944.09C952.986 950.349 944.136 953.079 935.437 951.397C930.652 950.507 926.229 948.307 922.669 945.035L800.891 833.196C797.518 830.097 795.072 826.183 793.818 821.872C791.36 813.434 793.696 804.241 799.913 797.881L852.589 744.02C857.585 738.916 864.605 736.08 871.851 736.241C878.282 736.379 884.383 738.804 889.032 743.075L1010.81 854.914C1014.18 858.013 1016.63 861.93 1017.88 866.238ZM798.531 820.585C799.548 824.075 801.53 827.246 804.261 829.755L926.039 941.593C928.922 944.24 932.494 946.02 936.376 946.743C943.434 948.111 950.6 945.896 955.557 940.827L1008.23 886.969C1013.27 881.819 1015.16 874.371 1013.17 867.531C1012.15 864.044 1010.17 860.873 1007.44 858.364L885.664 746.522C881.902 743.066 876.957 741.099 871.744 740.987C865.874 740.857 860.188 743.156 856.147 747.289L803.471 801.15C798.433 806.3 796.54 813.747 798.531 820.585Z" fill="#000072"/>
<path d="M880.684 751.612L992.151 853.985C997.608 858.996 997.84 867.385 992.669 872.673L939.993 926.532C937.369 929.216 933.856 930.595 930.292 930.636C926.868 930.699 923.394 929.501 920.707 927.033L809.24 824.66C803.783 819.649 803.551 811.26 808.723 805.972L861.398 752.113C864.944 748.487 870.118 747.237 874.796 748.43C876.936 748.971 878.966 750.034 880.684 751.612Z" fill="#F6F6F6"/>
<path d="M998.235 859.323C999.772 864.599 998.319 870.342 994.44 874.308L941.764 928.169C938.754 931.248 934.688 932.965 930.31 933.011C926.105 933.088 922.087 931.579 919.017 928.76L807.549 826.384C805.451 824.458 803.926 822.015 803.144 819.328C801.608 814.049 803.061 808.307 806.94 804.344L859.615 750.488C863.66 746.355 869.711 744.687 875.415 746.142C878 746.798 880.405 748.097 882.363 749.894L993.834 852.27C995.926 854.191 997.451 856.63 998.235 859.323ZM807.858 818.035C808.402 819.902 809.46 821.598 810.919 822.937L922.387 925.312C924.518 927.271 927.309 928.316 930.239 928.264C933.297 928.23 936.121 927.037 938.21 924.903L990.886 871.042C993.584 868.283 994.595 864.288 993.525 860.613C992.981 858.747 991.92 857.048 990.464 855.709L878.993 753.333C877.632 752.08 875.964 751.179 874.172 750.724C870.199 749.71 865.987 750.871 863.173 753.745L810.497 807.601C807.796 810.363 806.785 814.358 807.858 818.035Z" fill="#000072"/>
<path d="M920.319 814.033L913.21 821.301L941.336 847.133L948.445 839.865L920.319 814.033Z" fill="#0D6EFD"/>
<path d="M911.383 828.638L904.274 835.906L929.588 859.155L936.696 851.887L911.383 828.638Z" fill="#0D6EFD"/>
<path d="M904.312 845.005L897.204 852.273L917.83 871.217L924.938 863.949L904.312 845.005Z" fill="#0D6EFD"/>
<path d="M902.376 866.056L895.267 873.324L906.048 883.226L913.157 875.958L902.376 866.056Z" fill="#0D6EFD"/>
<path d="M886.482 869.578C886.306 869.756 886.063 869.869 885.789 869.872C885.254 869.877 884.814 869.46 884.811 868.941L884.583 844.156C884.58 843.911 884.675 843.678 884.847 843.499L891.689 836.504L891.558 807.445C891.555 806.926 891.989 806.503 892.521 806.5C893.056 806.5 893.493 806.918 893.496 807.433L893.626 836.873C893.626 837.114 893.531 837.348 893.362 837.523L886.523 844.516L886.746 868.924C886.749 869.177 886.648 869.408 886.482 869.578Z" fill="#0D6EFD"/>
<path d="M885.678 810.761L892.296 799.535L899.019 810.704L885.678 810.761Z" fill="#0D6EFD"/>
<path d="M838.423 836.405C837.41 837.439 835.724 837.485 834.658 836.503L816.674 819.986C815.607 819.004 815.559 817.371 816.573 816.337C817.583 815.303 819.271 815.257 820.338 816.239L838.322 832.756C839.389 833.735 839.434 835.371 838.423 836.405Z" fill="#0D6EFD"/>
<path d="M1374.98 458.703C1373.65 458.614 1372.31 458.3 1371.02 457.736L1359.07 452.491C1348.52 447.86 1343.24 436.291 1346.81 425.598L1380.21 325.535L1422.31 344.016L1386.57 451.071C1384.92 456.028 1380.03 459.017 1374.98 458.703Z" fill="#0D6EFD"/>
<path d="M1374.96 458.705C1367.76 453.083 1364.62 443.591 1367.59 434.723L1401.01 334.672L1422.3 344.018L1386.56 451.073C1384.9 456.029 1380.02 459.019 1374.96 458.705Z" fill="#F6F6F6"/>
<path d="M1483.14 247.797L1428.71 364.227L1388.82 346.714C1372.22 339.424 1360.26 326.338 1354.3 310.999C1348.36 295.697 1348.42 278.181 1355.93 262.117C1360.4 252.555 1367.02 244.577 1374.97 238.483C1393.72 224.031 1419.93 220.051 1443.25 230.284L1483.14 247.797Z" fill="#23130D"/>
<path d="M1483.15 247.8L1453.55 311.114L1413.66 293.601C1397.05 286.311 1385.1 273.199 1379.13 257.886C1376.73 251.7 1375.32 245.148 1374.98 238.483C1393.72 224.031 1419.94 220.051 1443.25 230.284L1483.15 247.8Z" fill="#F6F6F6"/>
<path d="M1604.48 264.178L1521.44 441.805L1428.72 364.227L1483.15 247.797L1604.48 264.178Z" fill="#0D6EFD"/>
<path d="M1417.67 361.428C1418.3 362.039 1418.56 362.961 1418.27 363.839L1388.9 451.8C1386.95 457.652 1381.16 461.465 1374.82 461.071C1373.14 460.958 1371.52 460.564 1370.01 459.896L1358.06 454.654C1346.37 449.507 1340.53 436.712 1344.48 424.863L1373.09 339.152C1373.51 337.905 1374.89 337.222 1376.18 337.622C1377.47 338.031 1378.17 339.365 1377.75 340.612L1349.15 426.323C1345.96 435.865 1350.65 446.19 1360.09 450.328L1372.04 455.57C1373.02 456.005 1374.07 456.261 1375.15 456.333C1379.24 456.586 1382.98 454.121 1384.25 450.337L1413.61 362.376C1414.03 361.129 1415.41 360.446 1416.7 360.847C1417.07 360.968 1417.4 361.172 1417.67 361.428Z" fill="#000072"/>
<path d="M1484.88 246.118C1485.58 246.795 1485.82 247.849 1485.38 248.777L1430.95 365.206C1430.39 366.399 1428.94 366.931 1427.71 366.387L1387.82 348.877C1371.25 341.599 1358.4 328.267 1352.01 311.834C1345.57 295.257 1346.18 277.254 1353.71 261.135C1358.18 251.57 1365.01 243.091 1373.46 236.62C1393.63 221.068 1420.77 217.808 1444.26 228.121L1484.16 245.635C1484.44 245.755 1484.68 245.923 1484.88 246.118ZM1427.5 361.085L1479.91 248.981L1442.25 232.447C1420.43 222.871 1395.24 225.898 1376.51 240.341C1368.55 246.435 1362.39 254.09 1358.17 263.096C1351.18 278.058 1350.62 294.773 1356.6 310.164C1362.53 325.425 1374.45 337.8 1389.84 344.551L1427.5 361.085Z" fill="#000072"/>
<path d="M1579.82 258.943C1580.34 259.453 1580.63 260.184 1580.51 260.951C1580.33 262.247 1579.09 263.154 1577.75 262.975L1484.63 250.401L1431.71 363.6L1511.14 430.067C1512.14 430.882 1512.28 432.42 1511.39 433.414C1510.51 434.404 1508.96 434.514 1507.94 433.658L1427.12 366.033C1426.28 365.336 1426.05 364.216 1426.49 363.257L1480.92 246.827C1481.37 245.868 1482.41 245.312 1483.49 245.456L1578.43 258.272C1578.98 258.35 1579.46 258.592 1579.82 258.943Z" fill="#000072"/>
<path d="M1420.06 241.226C1420.97 239.291 1423.32 238.432 1425.32 239.308L1458.97 254.079C1460.97 254.958 1461.85 257.236 1460.95 259.174C1460.04 261.109 1457.69 261.968 1455.69 261.092L1422.04 246.321C1420.04 245.442 1419.16 243.161 1420.06 241.226Z" fill="#23130D"/>
<path d="M68.7614 1002.79C57.2449 1023.94 30.2561 1032.02 8.43868 1020.86L-26.3664 1003.06L-54.012 1009.47L-44.9652 992.861C-53.8426 986.364 -59.6974 977.064 -61.8194 966.955L-61.8045 966.926C-61.9234 966.322 -62.0304 965.76 -62.1493 965.155C-62.2385 964.565 -62.3306 963.977 -62.4049 963.358C-62.4673 962.782 -62.5416 962.166 -62.5862 961.561C-62.6783 960.354 -62.7229 959.136 -62.7407 957.932C-62.711 957.258 -62.6932 956.541 -62.6634 955.87C-62.6367 955.34 -62.61 954.81 -62.5386 954.269C-62.4643 953.583 -62.3871 952.823 -62.2682 952.123C-62.2117 951.608 -62.1255 951.11 -62.0126 950.623C-61.9413 950.15 -61.8432 949.695 -61.7302 949.209C-61.6441 948.708 -61.5311 948.224 -61.3706 947.725C-61.3201 947.498 -61.2577 947.242 -61.1774 947.029C-61.0318 946.415 -60.8386 945.787 -60.6336 945.205C-60.268 944.053 -59.843 942.93 -59.3437 941.807C-59.1565 941.323 -58.9366 940.854 -58.7196 940.387C-58.363 939.664 -57.9915 938.913 -57.5902 938.175C-46.0737 917.03 -19.0553 908.964 2.73244 920.106L50.115 944.339C71.9355 955.496 80.2779 981.649 68.7614 1002.79Z" fill="#0D6EFD"/>
<path d="M36.5895 986.338C25.073 1007.48 -1.91577 1015.57 -23.7332 1004.41L-26.3664 1003.06L-54.012 1009.47L-44.9652 992.861C-53.8426 986.364 -59.6974 977.064 -61.8194 966.955L-61.8045 966.926C-61.9234 966.322 -62.0304 965.76 -62.1493 965.155C-62.2385 964.565 -62.3306 963.977 -62.4049 963.358C-62.4673 962.782 -62.5416 962.166 -62.5862 961.561C-62.6783 960.354 -62.7229 959.136 -62.7407 957.932C-62.711 957.258 -62.6932 956.541 -62.6634 955.87C-62.6367 955.34 -62.61 954.81 -62.5386 954.269C-62.4643 953.583 -62.3871 952.823 -62.2682 952.123C-62.2117 951.608 -62.1255 951.109 -62.0126 950.623C-61.9413 950.15 -61.8432 949.695 -61.7302 949.209C-61.6441 948.708 -61.5311 948.224 -61.3706 947.725C-61.3201 947.498 -61.2577 947.242 -61.1774 947.029C-61.0318 946.415 -60.8386 945.787 -60.6336 945.205C-60.268 944.053 -59.843 942.93 -59.3437 941.807C-59.1565 941.323 -58.9366 940.854 -58.7196 940.387C-58.363 939.664 -57.9915 938.913 -57.5902 938.175C-46.0737 917.03 -19.0553 908.964 2.73244 920.106L17.9402 927.885C39.7606 939.039 48.103 965.193 36.5895 986.338Z" fill="#F6F6F6"/>
<path d="M29.2548 1028.25C21.6553 1028.25 14.0619 1026.42 7.30059 1022.96L-26.6931 1005.58L-53.4411 1011.78C-54.3952 1011.99 -55.3581 1011.66 -55.9465 1010.92C-56.535 1010.19 -56.6271 1009.19 -56.1754 1008.36L-48.0797 993.498C-56.3686 986.857 -62.0689 977.672 -64.2206 967.431C-64.2414 967.316 -64.2592 967.198 -64.2652 967.083L-64.5534 965.608C-64.6664 964.894 -64.7585 964.286 -64.8388 963.644L-64.8893 963.172C-64.9398 962.705 -64.9903 962.224 -65.029 961.749C-65.1211 960.482 -65.1716 959.217 -65.1895 957.968L-65.1092 955.764C-65.0795 955.171 -65.0498 954.578 -64.9695 953.976L-64.9368 953.682C-64.8655 953.043 -64.7942 952.366 -64.6812 951.735C-64.6396 951.272 -64.5386 950.675 -64.4019 950.094C-64.3573 949.751 -64.2444 949.232 -64.1195 948.682C-64.0423 948.216 -63.9026 947.628 -63.7094 947.026C-63.7035 946.931 -63.6054 946.56 -63.4924 946.255C-63.4033 945.805 -63.1834 945.105 -62.9545 944.449C-62.5711 943.239 -62.1194 942.05 -61.5933 940.866C-61.4388 940.463 -61.2129 939.968 -60.9841 939.472C-60.5621 938.614 -60.1727 937.833 -59.7566 937.067C-51.5807 922.051 -35.6032 912.723 -18.0654 912.723C-10.469 912.723 -2.88446 914.549 3.87387 918.008L51.2565 942.24C74.2211 953.984 83.045 981.644 70.9252 1003.9C62.7522 1018.92 46.7806 1028.25 29.2548 1028.25ZM-26.3633 1000.69C-25.968 1000.69 -25.5757 1000.78 -25.222 1000.96L9.58308 1018.76C15.6489 1021.86 22.4489 1023.5 29.2548 1023.5C44.9588 1023.5 59.269 1015.14 66.5979 1001.69C77.4576 981.742 69.5521 956.96 48.9769 946.436L1.59435 922.204C-4.46556 919.108 -11.2595 917.469 -18.0625 917.469C-33.7814 917.469 -48.0945 925.827 -55.4235 939.279C-55.8098 939.991 -56.1665 940.713 -56.5112 941.41C-56.6985 941.816 -56.8887 942.22 -57.0491 942.64C-57.5603 943.789 -57.9526 944.835 -58.2914 945.903C-58.4935 946.479 -58.6629 947.026 -58.7937 947.562C-58.9096 947.928 -58.9423 948.069 -58.9691 948.199C-59.1563 948.824 -59.2455 949.207 -59.3138 949.598C-59.4446 950.16 -59.5308 950.557 -59.5902 950.96C-59.718 951.542 -59.7893 951.945 -59.8339 952.363C-59.9498 953.051 -60.0093 953.627 -60.0657 954.175L-60.1044 954.52C-60.1698 955.041 -60.1965 955.511 -60.2203 955.977L-60.2975 958.028C-60.2767 959.056 -60.2351 960.228 -60.146 961.389C-60.1133 961.807 -60.0657 962.241 -60.0182 962.662L-59.9706 963.114C-59.8993 963.667 -59.8131 964.24 -59.7299 964.805L-59.4 966.481C-59.3851 966.573 -59.3703 966.662 -59.3643 966.757C-57.2631 976.417 -51.6342 985.005 -43.4909 990.964C-42.5339 991.664 -42.2397 992.936 -42.8014 993.965L-49.322 1005.94L-26.9368 1000.75C-26.7466 1000.71 -26.5564 1000.69 -26.3633 1000.69Z" fill="#000072"/>
<path d="M13.6758 974.79C11.2953 979.162 5.7079 980.835 1.19937 978.528C-3.31212 976.221 -5.03885 970.807 -2.65828 966.435C-0.277709 962.063 5.30965 960.39 9.81817 962.697C14.3297 965.006 16.0564 970.421 13.6758 974.79Z" fill="#23130D"/>
<path d="M44.0724 990.329C41.6918 994.701 36.1044 996.374 31.5929 994.067C27.0814 991.76 25.3547 986.346 27.7353 981.974C30.1158 977.602 35.7032 975.929 40.2147 978.236C44.7262 980.545 46.4529 985.96 44.0724 990.329Z" fill="#23130D"/>
<path d="M1361.61 543.345L1337.05 581.228C1325.83 598.543 1302.23 603.761 1284.37 592.884C1281.58 591.187 1279.09 589.186 1276.92 586.965C1265.22 575.007 1262.87 556.446 1272.34 541.833L1296.9 503.949L1361.61 543.345Z" fill="#0D6EFD"/>
<path d="M1366.46 555.696L1366.45 555.714C1364.03 559.44 1358.95 560.549 1355.1 558.208L1285.9 516.073C1282.06 513.732 1280.9 508.824 1283.32 505.098L1283.33 505.08C1285.74 501.354 1290.81 500.233 1294.65 502.575L1363.86 544.709C1367.7 547.051 1368.86 551.958 1366.46 555.696Z" fill="#0D6EFD"/>
<path d="M1296.39 643.94L1271.83 681.823L1207.12 642.425L1231.68 604.541C1241.16 589.928 1259.44 583.929 1275.63 588.955C1278.64 589.885 1281.58 591.19 1284.36 592.886C1302.23 603.767 1307.62 626.625 1296.39 643.94Z" fill="#0D6EFD"/>
<path d="M1345.44 533.495L1320.87 571.379C1311.4 585.992 1293.12 591.991 1276.92 586.965C1265.22 575.007 1262.87 556.446 1272.34 541.833L1296.9 503.949L1345.44 533.495Z" fill="#F6F6F6"/>
<path d="M1280.21 634.09L1255.65 671.974L1207.12 642.425L1231.68 604.541C1241.16 589.928 1259.44 583.929 1275.63 588.955C1287.33 600.916 1289.69 619.477 1280.21 634.09Z" fill="#F6F6F6"/>
<path d="M1278.23 548.46C1271.32 561.584 1275.77 577.934 1288.88 585.92C1302 593.906 1319.13 590.698 1328.33 578.965C1308.51 566.287 1300.29 546.098 1278.23 548.46Z" fill="#23130D"/>
<path d="M1234.51 615.66L1218.84 639.829L1269.17 670.472L1284.84 646.303C1274.11 626.106 1252.59 630.311 1234.51 615.66Z" fill="#23130D"/>
<path d="M1296.46 582.324L1288.82 577.672L1254.94 629.924L1262.58 634.576L1296.46 582.324Z" fill="#23130D"/>
<path d="M1285.43 680.673L1285.42 680.69C1283 684.417 1277.92 685.526 1274.08 683.184L1204.87 641.05C1201.03 638.708 1199.87 633.801 1202.29 630.074L1202.3 630.057C1204.72 626.33 1209.78 625.21 1213.63 627.551L1282.83 669.686C1286.68 672.027 1287.85 676.946 1285.43 680.673Z" fill="#0D6EFD"/>
<path d="M1344.28 542.189L1344.27 542.206C1341.85 545.933 1336.79 547.053 1332.94 544.712L1285.9 516.073C1282.06 513.732 1280.9 508.824 1283.32 505.098L1283.33 505.08C1285.74 501.354 1290.81 500.233 1294.65 502.575L1341.69 531.213C1345.54 533.558 1346.7 538.462 1344.28 542.189Z" fill="#F6F6F6"/>
<path d="M1263.25 667.166L1263.24 667.183C1260.82 670.91 1255.76 672.03 1251.91 669.688L1204.87 641.05C1201.03 638.708 1199.87 633.801 1202.29 630.074L1202.3 630.057C1204.72 626.33 1209.78 625.21 1213.63 627.551L1260.67 656.193C1264.51 658.531 1265.67 663.439 1263.25 667.166Z" fill="#F6F6F6"/>
<path d="M1304.64 600.943C1297.07 600.943 1289.64 598.883 1283.08 594.889C1280.19 593.126 1277.52 591.007 1275.16 588.593C1262.41 575.555 1260.4 555.807 1270.29 540.566L1286.32 515.85C1287.03 514.741 1288.54 514.404 1289.69 515.101C1290.84 515.798 1291.18 517.264 1290.46 518.373L1274.44 543.089C1265.74 556.496 1267.5 573.865 1278.72 585.33C1280.8 587.453 1283.14 589.319 1285.69 590.871C1293.78 595.796 1303.36 597.374 1312.67 595.312C1321.99 593.253 1329.91 587.804 1335 579.965L1346.84 561.697C1347.57 560.588 1349.07 560.251 1350.22 560.948C1351.36 561.645 1351.71 563.111 1350.99 564.22L1339.14 582.491C1333.37 591.398 1324.35 597.599 1313.76 599.94C1310.73 600.611 1307.67 600.943 1304.64 600.943Z" fill="#000072"/>
<path d="M1359.49 561.811C1357.48 561.811 1355.52 561.26 1353.81 560.218L1284.6 518.086C1279.63 515.054 1278.12 508.66 1281.25 503.839C1283.23 500.789 1286.6 498.98 1290.3 498.98C1292.3 498.98 1294.26 499.528 1295.97 500.567L1365.17 542.699C1370.13 545.723 1371.65 552.116 1368.55 556.949C1366.57 560.005 1363.19 561.811 1359.49 561.811ZM1290.3 503.727C1288.3 503.727 1286.47 504.706 1285.41 506.345C1283.71 508.971 1284.52 512.427 1287.21 514.066L1356.41 556.197C1359.04 557.802 1362.74 556.975 1364.38 554.452C1366.06 551.82 1365.25 548.355 1362.56 546.716L1293.35 504.585C1292.44 504.023 1291.38 503.727 1290.3 503.727Z" fill="#000072"/>
<path d="M1283.61 666.03C1283.17 666.03 1282.72 665.912 1282.31 665.664C1281.17 664.97 1280.82 663.504 1281.54 662.393L1294.33 642.667C1299.41 634.831 1301.04 625.546 1298.91 616.523C1296.79 607.497 1291.16 599.816 1283.07 594.888C1280.53 593.336 1277.78 592.1 1274.9 591.211C1259.38 586.387 1242.46 592.388 1233.77 605.795L1217.82 630.384C1217.11 631.49 1215.6 631.833 1214.45 631.13C1213.3 630.436 1212.96 628.97 1213.68 627.859L1229.62 603.269C1239.5 588.028 1258.74 581.2 1276.39 586.689C1279.66 587.7 1282.78 589.105 1285.68 590.871C1294.87 596.469 1301.27 605.202 1303.69 615.466C1306.1 625.724 1304.25 636.285 1298.47 645.196L1285.69 664.921C1285.23 665.638 1284.43 666.03 1283.61 666.03Z" fill="#000072"/>
<path d="M1278.46 686.786C1276.46 686.786 1274.49 686.236 1272.78 685.193L1203.58 643.059C1198.6 640.026 1197.09 633.639 1200.22 628.812C1202.2 625.765 1205.57 623.953 1209.27 623.953C1211.27 623.953 1213.23 624.503 1214.94 625.54L1284.14 667.674C1289.13 670.713 1290.64 677.109 1287.51 681.936C1285.54 684.983 1282.16 686.786 1278.46 686.786ZM1209.27 628.702C1207.27 628.702 1205.45 629.681 1204.38 631.323C1202.68 633.95 1203.49 637.406 1206.18 639.044L1275.39 681.179C1278.01 682.774 1281.72 681.951 1283.35 679.431C1285.05 676.804 1284.23 673.342 1281.53 671.695L1212.33 629.561C1211.41 628.999 1210.35 628.702 1209.27 628.702Z" fill="#000072"/>
<path d="M1098.06 974.672C1068.17 974.672 1043.93 998.158 1043.93 1027.13C1043.93 1056.1 1068.17 1079.58 1098.06 1079.58C1110.66 1079.58 1122.24 1075.4 1131.43 1068.41L1098.06 1027.13V974.672Z" fill="#F6F6F6"/>
<path d="M1098.07 965.414V974.67V1027.13H1152.21H1161.76C1161.76 993.045 1133.25 965.414 1098.07 965.414Z" fill="#0D6EFD"/>
<path d="M1098.08 1081.96C1066.88 1081.96 1041.5 1057.36 1041.5 1027.13C1041.5 996.898 1066.88 972.297 1098.08 972.297C1099.43 972.297 1100.53 973.36 1100.53 974.67V1026.31L1133.38 1066.95C1134.21 1067.98 1134.03 1069.47 1132.96 1070.28C1122.91 1077.92 1110.85 1081.96 1098.08 1081.96ZM1095.63 977.098C1068.27 978.342 1046.4 1000.3 1046.4 1027.13C1046.4 1054.74 1069.59 1077.21 1098.08 1077.21C1108.93 1077.21 1119.21 1074.02 1127.98 1067.96L1096.15 1028.59C1095.82 1028.17 1095.63 1027.66 1095.63 1027.12V977.098Z" fill="#000072"/>
<path d="M1161.77 1029.5H1098.08C1096.73 1029.5 1095.63 1028.44 1095.63 1027.13V965.416C1095.63 964.106 1096.73 963.043 1098.08 963.043C1134.55 963.043 1164.21 991.791 1164.21 1027.13C1164.21 1028.44 1163.12 1029.5 1161.77 1029.5ZM1100.53 1024.76H1159.27C1158.01 993.917 1132.35 969.054 1100.53 967.835V1024.76Z" fill="#000072"/>
<path d="M1257.74 429.906C1270.38 420.304 1278.5 405.386 1278.5 388.621H1224.37L1257.74 429.906Z" fill="#23130D"/>
<path d="M1224.37 336.164C1194.47 336.164 1170.24 359.65 1170.24 388.62C1170.24 417.59 1194.47 441.077 1224.37 441.077C1236.96 441.077 1248.55 436.898 1257.74 429.905L1224.37 388.62V336.164Z" fill="#F6F6F6"/>
<path d="M1224.37 326.906V336.163V388.619H1278.5H1288.05C1288.05 354.537 1259.54 326.906 1224.37 326.906Z" fill="#0D6EFD"/>
<path d="M1257.75 432.276C1257.65 432.276 1257.55 432.27 1257.45 432.256C1256.81 432.181 1256.22 431.861 1255.82 431.366L1222.45 390.081C1221.87 389.364 1221.76 388.394 1222.18 387.578C1222.58 386.761 1223.44 386.242 1224.38 386.242H1278.5C1279.86 386.242 1280.95 387.305 1280.95 388.615C1280.95 405.555 1273.04 421.283 1259.26 431.766C1258.83 432.1 1258.29 432.276 1257.75 432.276ZM1229.41 390.994L1258.13 426.528C1268.94 417.505 1275.34 404.769 1276 390.994H1229.41Z" fill="#000072"/>
<path d="M1224.38 443.445C1193.18 443.445 1167.79 418.85 1167.79 388.618C1167.79 358.384 1193.18 333.789 1224.38 333.789C1225.73 333.789 1226.83 334.852 1226.83 336.162V387.801L1259.68 428.437C1260.51 429.468 1260.32 430.963 1259.26 431.77C1249.21 439.407 1237.15 443.445 1224.38 443.445ZM1221.93 338.59C1194.56 339.834 1172.69 361.797 1172.69 388.618C1172.69 416.235 1195.88 438.699 1224.38 438.699C1235.23 438.699 1245.51 435.511 1254.28 429.457L1222.45 390.082C1222.12 389.661 1221.93 389.148 1221.93 388.616V338.59H1221.93Z" fill="#000072"/>
<path d="M1288.06 390.994H1224.38C1223.02 390.994 1221.93 389.931 1221.93 388.621V326.908C1221.93 325.598 1223.02 324.535 1224.38 324.535C1260.84 324.535 1290.51 353.283 1290.51 388.624C1290.51 389.931 1289.41 390.994 1288.06 390.994ZM1226.82 386.248H1285.56C1284.3 355.409 1258.65 330.546 1226.82 329.327V386.248Z" fill="#000072"/>
<path d="M384.987 978.929C397.621 969.327 405.746 954.409 405.746 937.645H351.614L384.987 978.929Z" fill="#23130D"/>
<path d="M351.613 885.188C321.718 885.188 297.481 908.674 297.481 937.644C297.481 966.614 321.718 990.1 351.613 990.1C364.209 990.1 375.788 985.918 384.986 978.929L351.613 937.644V885.188Z" fill="#F6F6F6"/>
<path d="M351.614 875.93V885.186V937.642H405.746H415.298C415.298 903.56 386.788 875.93 351.614 875.93Z" fill="#0D6EFD"/>
<path d="M384.983 981.297C384.884 981.297 384.786 981.291 384.688 981.279C384.04 981.204 383.455 980.885 383.054 980.389L349.684 939.105C349.108 938.388 349.001 937.417 349.414 936.602C349.821 935.784 350.677 935.266 351.613 935.266H405.742C407.094 935.266 408.191 936.328 408.191 937.639C408.191 954.579 400.282 970.307 386.495 980.79C386.061 981.121 385.529 981.297 384.983 981.297ZM356.642 940.012L385.366 975.545C396.172 966.522 402.577 953.787 403.237 940.012H356.642Z" fill="#000072"/>
<path d="M351.615 992.465C320.415 992.465 295.031 967.869 295.031 937.638C295.031 907.404 320.415 882.809 351.615 882.809C352.968 882.809 354.064 883.871 354.064 885.182V936.82L386.917 977.457C387.749 978.488 387.565 979.983 386.498 980.789C376.446 988.424 364.386 992.465 351.615 992.465ZM349.166 887.607C321.8 888.851 299.932 910.814 299.932 937.635C299.932 965.252 323.117 987.716 351.615 987.716C362.46 987.716 372.743 984.527 381.514 978.474L349.687 939.098C349.351 938.678 349.166 938.165 349.166 937.632V887.607Z" fill="#000072"/>
<path d="M415.297 940.01H351.613C350.261 940.01 349.164 938.947 349.164 937.637V875.924C349.164 874.614 350.261 873.551 351.613 873.551C388.08 873.551 417.746 902.299 417.746 937.637C417.746 938.947 416.647 940.01 415.297 940.01ZM354.062 935.263H412.801C411.541 904.427 385.883 879.561 354.062 878.343V935.263Z" fill="#000072"/>
</g>
</svg>
